HIERARCHY
ROOT Hips
{
	OFFSET 0.000000 0.000000 0.000000 
	CHANNELS 6 Xposition Yposition Zposition Zrotation Yrotation Xrotation
	JOINT LeftUpLeg
	{
		OFFSET 1.363060 -1.794630 0.839290 
		CHANNELS 3 Zrotation Yrotation Xrotation
		JOINT LeftLeg
		{
			OFFSET 2.448110 -6.726130 0.000000 
			CHANNELS 3 Zrotation Yrotation Xrotation
			JOINT LeftFoot
			{
				OFFSET 2.562200 -7.039590 0.000000 
				CHANNELS 3 Zrotation Yrotation Xrotation
				JOINT LeftToeBase
				{
					OFFSET 0.157640 -0.433110 2.322550 
					CHANNELS 3 Zrotation Yrotation Xrotation
					End Site
					{
						OFFSET 0.000000 0.000000 0.000000 
					}
				}
			}
		}
	}
	JOINT RightUpLeg
	{
		OFFSET -1.305520 -1.794630 0.839290 
		CHANNELS 3 Zrotation Yrotation Xrotation
		JOINT RightLeg
		{
			OFFSET -2.542530 -6.985550 0.000000 
			CHANNELS 3 Zrotation Yrotation Xrotation
			JOINT RightFoot
			{
				OFFSET -2.568260 -7.056230 0.000000 
				CHANNELS 3 Zrotation Yrotation Xrotation
				JOINT RightToeBase
				{
					OFFSET -0.164730 -0.452590 2.363150 
					CHANNELS 3 Zrotation Yrotation Xrotation
					End Site
					{
						OFFSET 0.000000 0.000000 0.000000 
					}
				}
			}
		}
	}
	JOINT Spine
	{
		OFFSET 0.028270 2.035590 -0.193380 
		CHANNELS 3 Zrotation Yrotation Xrotation
		JOINT Spine1
		{
			OFFSET 0.056720 2.048850 -0.042750 
			CHANNELS 3 Zrotation Yrotation Xrotation
			JOINT Neck1
			{
				OFFSET -0.054170 1.746240 0.172020 
				CHANNELS 3 Zrotation Yrotation Xrotation
				JOINT Head
				{
					OFFSET 0.104070 1.761360 -0.123970 
					CHANNELS 3 Zrotation Yrotation Xrotation
					End Site
					{
						OFFSET 0.000000 0.000000 0.000000 
					}
				}
			}
			JOINT LeftArm
			{
				OFFSET 3.362410 1.200890 -0.311210 
				CHANNELS 3 Zrotation Yrotation Xrotation
				JOINT LeftForeArm
				{
					OFFSET 4.983000 -0.000000 -0.000000 
					CHANNELS 3 Zrotation Yrotation Xrotation
					JOINT LeftHand
					{
						OFFSET 3.483560 -0.000000 -0.000000 
						CHANNELS 3 Zrotation Yrotation Xrotation
						JOINT LeftHandIndex1
						{
							OFFSET 0.715260 -0.000000 -0.000000 
							CHANNELS 3 Zrotation Yrotation Xrotation
							End Site
							{
								OFFSET 0.000000 0.000000 0.000000 
							}
						}
					}
				}
			}
			JOINT RightArm
			{
				OFFSET -3.136600 1.374050 -0.404650 
				CHANNELS 3 Zrotation Yrotation Xrotation
				JOINT RightForeArm
				{
					OFFSET -5.241900 -0.000000 -0.000000 
					CHANNELS 3 Zrotation Yrotation Xrotation
					JOINT RightHand
					{
						OFFSET -3.444170 -0.000000 -0.000000 
						CHANNELS 3 Zrotation Yrotation Xrotation
						JOINT RightHandIndex1
						{
							OFFSET -0.622530 -0.000000 -0.000000 
							CHANNELS 3 Zrotation Yrotation Xrotation
							End Site
							{
								OFFSET 0.000000 0.000000 0.000000 
							}
						}
					}
				}
			}
		}
	}
}
MOTION
Frames: 13
Frame Time: 0.041667
3.201811 17.071718 3.391218 -178.816021 -1.280180 -176.481956 -7.908900 34.060407 -43.284838 11.378119 17.297806 54.632131 5.188191 -4.250986 14.359944 0.373300 -3.924200 -10.863500 17.672132 -35.876582 -48.319249 -13.298024 -18.211661 61.596662 2.138722 -9.088229 4.393858 -0.227900 -3.072900 8.481800 0.502476 2.832903 -4.984389 0.713521 1.150546 -3.792558 6.859683 -1.378026 16.770895 0.653100 -0.854100 16.547600 10.459837 -2.116144 40.290608 9.280044 -12.573620 -7.025421 -1.238112 -2.533828 -15.888037 -7.125000 0.000000 0.000000 -12.048041 -3.903954 39.441952 -7.130517 13.227583 -6.728586 3.290533 -2.265864 -14.394999 7.125000 0.000000 0.000000 
3.214846 17.063766 3.393174 -178.829441 -1.320362 -176.497246 -7.917619 34.076766 -43.295678 11.408703 17.303511 54.654023 5.023478 -3.894182 14.102258 0.458900 -4.345300 -12.050300 17.724532 -35.938194 -48.392343 -13.335086 -18.229873 61.711546 2.138487 -9.080630 4.295308 -0.226900 -3.066000 8.462500 0.498390 2.814570 -4.997148 0.701688 1.146828 -3.808371 6.838696 -1.346466 16.815849 0.641200 -0.848600 16.575100 10.485422 -2.147827 40.080781 9.260798 -12.530507 -6.973925 -1.322253 -2.476297 -15.774812 -7.125000 0.000000 0.000000 -12.081782 -3.883881 39.424423 -7.140519 13.217381 -6.738438 3.256957 -2.286962 -14.322744 7.125000 0.000000 0.000000 
3.227752 17.055684 3.394608 -178.841554 -1.365256 -176.514425 -7.935297 34.110143 -43.319012 11.419398 17.303700 54.646332 4.946658 -3.721745 13.959603 0.486100 -4.470800 -12.405200 17.771023 -35.997468 -48.454885 -13.369631 -18.246529 61.823055 2.114533 -9.033032 4.197101 -0.228700 -3.078000 8.496000 0.494993 2.802914 -5.004957 0.696849 1.142818 -3.820464 6.823134 -1.341314 16.867433 0.630000 -0.852300 16.624300 10.508260 -2.176770 39.895341 9.247672 -12.503857 -6.943280 -1.345508 -2.462100 -15.878845 -7.125000 0.000000 0.000000 -12.094972 -3.878535 39.313488 -7.130570 13.202576 -6.738185 3.231306 -2.330245 -14.189708 7.125000 0.000000 0.000000 
3.240005 17.049036 3.396172 -178.832852 -1.406624 -176.537764 -7.921292 34.124483 -43.319250 11.427268 17.304139 54.630572 4.882067 -3.573708 13.821362 0.496500 -4.517400 -12.537000 17.830731 -36.056331 -48.506790 -13.399862 -18.262641 61.925828 2.093032 -8.990436 4.112523 -0.230700 -3.091200 8.532800 0.495566 2.791966 -5.013849 0.688414 1.138640 -3.835972 6.807605 -1.324124 16.917436 0.620200 -0.853700 16.665900 10.531766 -2.206550 39.748591 9.242141 -12.479878 -6.917675 -1.384475 -2.406479 -16.081174 -7.125000 0.000000 0.000000 -12.123537 -3.866463 39.237751 -7.122002 13.179630 -6.731895 3.210148 -2.362891 -14.109127 7.125000 0.000000 0.000000 
3.252519 17.043040 3.398127 -178.839777 -1.466068 -176.557216 -7.971112 34.171501 -43.371481 11.433215 17.297460 54.588476 4.725232 -3.231466 13.625153 0.513600 -4.593400 -12.752300 17.873796 -36.103137 -48.554764 -13.430185 -18.276800 62.024689 2.094647 -8.987178 4.014324 -0.231400 -3.096100 8.546300 0.494503 2.763485 -5.029947 0.710115 1.128529 -3.878445 6.812420 -1.324763 16.948948 0.620200 -0.857700 16.688900 10.565162 -2.237445 39.637247 9.242714 -12.449363 -6.893352 -1.382616 -2.396836 -16.107773 -7.125000 0.000000 0.000000 -12.144841 -3.855130 39.181139 -7.118804 13.154471 -6.718589 3.228593 -2.330095 -14.119663 7.125000 0.000000 0.000000 
3.265034 17.037043 3.400343 -178.839306 -1.522044 -176.572198 -7.996301 34.196487 -43.404070 11.434969 17.290600 54.545688 4.601385 -2.961532 13.464512 0.526200 -4.648600 -12.909100 17.932320 -36.156631 -48.614217 -13.458002 -18.289654 62.116214 2.094116 -8.981030 3.924732 -0.233100 -3.107200 8.577300 0.493754 2.742562 -5.042793 0.717017 1.120704 -3.910901 6.804089 -1.323413 16.987425 0.611300 -0.862200 16.721300 10.592802 -2.268195 39.502521 9.238363 -12.422029 -6.865684 -1.410844 -2.358794 -16.140994 -7.125000 0.000000 0.000000 -12.165691 -3.846699 39.096966 -7.111039 13.132257 -6.711578 3.213407 -2.332277 -14.072386 7.125000 0.000000 0.000000 
3.277417 17.031959 3.402690 -178.835710 -1.583402 -176.584479 -8.027856 34.216253 -43.444085 11.432473 17.280776 54.491513 4.466907 -2.671599 13.309493 0.528400 -4.658100 -12.936000 17.996857 -36.208097 -48.676550 -13.483442 -18.300346 62.201491 2.102193 -8.989618 3.833173 -0.234900 -3.119200 8.610900 0.493600 2.720864 -5.055913 0.725946 1.111957 -3.947259 6.796728 -1.328706 17.022337 0.602000 -0.869200 16.752500 10.620266 -2.298850 39.381924 9.236085 -12.397100 -6.840603 -1.438984 -2.317961 -16.154016 -7.125000 0.000000 0.000000 -12.184524 -3.841955 39.000433 -7.099882 13.108332 -6.703236 3.193888 -2.333285 -14.032701 7.125000 0.000000 0.000000 
3.290062 17.027918 3.405558 -178.827706 -1.652217 -176.592354 -8.056979 34.221119 -43.484896 11.426400 17.269249 54.433914 4.342964 -2.405931 13.166495 0.512500 -4.588800 -12.739400 18.068124 -36.255874 -48.741120 -13.504975 -18.308423 62.277027 2.110925 -8.999854 3.746033 -0.239700 -3.150700 8.698600 0.494306 2.696343 -5.069343 0.738295 1.101646 -3.986517 6.789607 -1.338381 17.052187 0.591500 -0.877100 16.780200 10.647117 -2.328370 39.271706 9.235425 -12.374175 -6.818149 -1.469542 -2.275704 -16.143466 -7.125000 0.000000 0.000000 -12.201781 -3.839673 38.896538 -7.086822 13.083945 -6.694696 3.168515 -2.331445 -14.002733 7.125000 0.000000 0.000000 
3.302576 17.024790 3.408816 -178.816101 -1.729571 -176.596060 -8.081854 34.206550 -43.524300 11.417709 17.256320 54.374180 4.217425 -2.140782 13.033161 0.487400 -4.476600 -12.421600 18.148630 -36.301606 -48.810554 -13.523233 -18.313608 62.343163 2.133009 -9.033302 3.657248 -0.244000 -3.178900 8.777200 0.495953 2.668263 -5.082581 0.753633 1.089374 -4.026702 6.782519 -1.351496 17.075982 0.579500 -0.885300 16.803600 10.672374 -2.355739 39.168948 9.235850 -12.354049 -6.799005 -1.500451 -2.234623 -16.122314 -7.125000 0.000000 0.000000 -12.217160 -3.840023 38.787331 -7.072274 13.059872 -6.686297 3.138386 -2.327930 -13.980625 7.125000 0.000000 0.000000 
3.315221 17.022704 3.412597 -178.800017 -1.814841 -176.596211 -8.092646 34.163497 -43.551818 11.406087 17.242544 54.315191 4.105585 -1.906775 12.918560 0.451100 -4.308700 -11.946800 18.233356 -36.342598 -48.879659 -13.537511 -18.315735 62.398870 2.155263 -9.067441 3.573677 -0.251100 -3.224300 8.903800 0.498902 2.637241 -5.094856 0.771316 1.075372 -4.065031 6.774948 -1.367027 17.093150 0.566200 -0.893700 16.821600 10.694597 -2.380300 39.072919 9.236993 -12.337840 -6.784257 -1.531470 -2.195332 -16.110939 -7.125000 0.000000 0.000000 -12.231739 -3.843606 38.678122 -7.057099 13.036546 -6.678872 3.106037 -2.324441 -13.963706 7.125000 0.000000 0.000000 
3.327735 17.021270 3.417029 -178.779531 -1.908205 -176.595589 -8.083663 34.087677 -43.562241 11.392655 17.228975 54.260801 4.007146 -1.703607 12.822822 0.409900 -4.109700 -11.385600 18.322375 -36.379066 -48.948378 -13.548468 -18.315350 62.446073 2.179992 -9.106008 3.493239 -0.259900 -3.280200 9.059700 0.503167 2.602864 -5.106134 0.791980 1.059295 -4.100792 6.766776 -1.382465 17.103105 0.551200 -0.901100 16.833100 10.713960 -2.401432 38.983483 9.239218 -12.325484 -6.774503 -1.559986 -2.161507 -16.127727 -7.125000 0.000000 0.000000 -12.245422 -3.849741 38.572281 -7.041714 13.014052 -6.671464 3.076238 -2.322543 -13.946895 7.125000 0.000000 0.000000 
3.340510 17.020618 3.421982 -178.757304 -2.008672 -176.593910 -8.048679 33.975763 -43.546417 11.378209 17.216049 54.210567 3.914966 -1.516243 12.741628 0.372100 -3.918200 -10.846800 18.412894 -36.410816 -49.013074 -13.556610 -18.312723 62.484983 2.219277 -9.169742 3.409003 -0.267000 -3.324000 9.182100 0.508743 2.565117 -5.116232 0.817091 1.041477 -4.132547 6.759039 -1.398817 17.105735 0.534900 -0.907400 16.837200 10.730942 -2.419864 38.898523 9.242796 -12.316857 -6.770127 -1.583060 -2.138341 -16.177945 -7.125000 0.000000 0.000000 -12.258509 -3.858289 38.474556 -7.026452 12.992148 -6.663423 3.053104 -2.322876 -13.924224 7.125000 0.000000 0.000000 
3.353024 17.020227 3.427327 -178.732011 -2.114255 -176.594829 -7.987775 33.831821 -43.504632 11.362507 17.203878 54.164695 3.836260 -1.358139 12.677480 0.338500 -3.738600 -10.342300 18.500501 -36.436025 -49.071021 -13.562003 -18.308498 62.517050 2.259130 -9.234651 3.327080 -0.275500 -3.376000 9.327500 0.515317 2.525246 -5.125326 0.844775 1.022233 -4.160724 6.749191 -1.415965 17.101789 0.514400 -0.912400 16.835000 10.745882 -2.435641 38.816554 9.247262 -12.311424 -6.770585 -1.596980 -2.120328 -16.258478 -7.125000 0.000000 0.000000 -12.271116 -3.868997 38.387393 -7.011842 12.971050 -6.655168 3.037377 -2.325335 -13.889503 7.125000 0.000000 0.000000 
